<svg width="13" height="13" viewBox="0 0 13 13" fill="none" xmlns="http://www.w3.org/2000/svg">
<path d="M12.6465 1C12.6465 0.723858 12.4226 0.5 12.1465 0.5L7.64648 0.5C7.37034 0.5 7.14648 0.723858 7.14648 1C7.14648 1.27614 7.37034 1.5 7.64648 1.5L11.6465 1.5L11.6465 5.5C11.6465 5.77614 11.8703 6 12.1465 6C12.4226 6 12.6465 5.77614 12.6465 5.5L12.6465 1ZM5.38562 7.76087C4.34422 6.71947 2.65578 6.71947 1.61438 7.76087C0.572984 8.80226 0.572983 10.4907 1.61438 11.5321C2.65578 12.5735 4.34422 12.5735 5.38562 11.5321C6.42702 10.4907 6.42702 8.80227 5.38562 7.76087ZM11.7929 0.646447L3.14645 9.29293L3.85355 10L12.5 1.35355L11.7929 0.646447Z" fill="black"/>
</svg>
