<svg width="139" height="140" viewBox="0 0 139 140" fill="none" xmlns="http://www.w3.org/2000/svg">
<circle cx="72.3018" cy="72.7585" r="44.9326" transform="rotate(45 72.3018 72.7585)" stroke="white" stroke-width="0.61976"/>
<path d="M81.8054 74.374C82.0571 74.1223 82.0571 73.7141 81.8054 73.4624L77.7032 69.3602C77.4515 69.1085 77.0434 69.1085 76.7916 69.3602C76.5399 69.612 76.5399 70.0201 76.7916 70.2718L80.438 73.9182L76.7916 77.5646C76.5399 77.8163 76.5399 78.2244 76.7916 78.4762C77.0434 78.7279 77.4515 78.7279 77.7032 78.4762L81.8054 74.374ZM69.3208 73.9182C69.3208 72.0196 67.7816 70.4804 65.8829 70.4804C63.9843 70.4804 62.4451 72.0196 62.4451 73.9182C62.4451 75.8169 63.9843 77.356 65.8829 77.356C67.7816 77.356 69.3208 75.8169 69.3208 73.9182ZM81.3496 73.2736H65.8829V74.5628H81.3496V73.2736Z" fill="white"/>
<circle cx="69.6724" cy="70.1289" r="48.6512" transform="rotate(45 69.6724 70.1289)" stroke="white" stroke-width="0.61976"/>
</svg>
