<svg width="220" height="221" viewBox="0 0 220 221" fill="none" xmlns="http://www.w3.org/2000/svg">
<circle cx="116.535" cy="112.111" r="82.3866" transform="rotate(15 116.535 112.111)" stroke="white" stroke-width="1.13637"/>
<path d="M133.107 105.963C133.276 105.333 132.902 104.685 132.271 104.516L121.997 101.763C121.366 101.594 120.718 101.968 120.549 102.598C120.38 103.229 120.754 103.877 121.385 104.046L130.518 106.493L128.071 115.626C127.902 116.256 128.276 116.905 128.906 117.073C129.537 117.242 130.185 116.868 130.354 116.238L133.107 105.963ZM112.865 116.685C111.124 113.67 107.269 112.637 104.254 114.378C101.239 116.118 100.206 119.974 101.947 122.988C103.687 126.003 107.543 127.036 110.557 125.296C113.572 123.555 114.605 119.7 112.865 116.685ZM131.374 104.634L106.815 118.813L107.997 120.86L132.556 106.681L131.374 104.634Z" fill="white"/>
<circle cx="109.949" cy="110.345" r="89.2048" transform="rotate(15 109.949 110.345)" stroke="white" stroke-width="1.13637"/>
</svg>
