<svg width="65" height="36" viewBox="0 0 65 36" fill="none" xmlns="http://www.w3.org/2000/svg">
<path d="M13.36 35.36C10.7733 35.36 8.64 35.08 6.96 34.52C5.30667 33.9867 4.01333 33.2667 3.08 32.36C2.14667 31.4533 1.49333 30.4133 1.12 29.24C0.773333 28.0667 0.6 26.8533 0.6 25.6V7C0.6 6.65333 0.64 6.36 0.72 6.12C0.826667 5.88 0.973333 5.68 1.16 5.52L6.32 1.16C6.45333 1.05333 6.62667 0.973332 6.84 0.919998C7.08 0.839999 7.33333 0.799999 7.6 0.799999H13.88C14.52 0.799999 14.9867 0.946666 15.28 1.24C15.5733 1.53333 15.72 2 15.72 2.64V20.88C15.72 21.12 15.76 21.3467 15.84 21.56C15.92 21.7467 16.0933 21.8933 16.36 22V7C16.36 6.65333 16.4 6.36 16.48 6.12C16.56 5.88 16.68 5.69333 16.84 5.56L16.88 5.52L22.08 1.16C22.2133 1.05333 22.3867 0.973332 22.6 0.919998C22.8133 0.839999 23.0667 0.799999 23.36 0.799999H29.44C30.08 0.799999 30.5467 0.946666 30.84 1.24C31.1333 1.53333 31.28 2 31.28 2.64V22.44C31.28 23.6667 31.1067 24.8 30.76 25.84C30.4133 26.88 29.7867 27.7733 28.88 28.52L23.68 32.84C22.7467 33.64 21.4533 34.2533 19.8 34.68C18.1467 35.1333 16 35.36 13.36 35.36ZM30.88 22.44V2.64C30.88 2.13333 30.76 1.77333 30.52 1.56C30.3067 1.32 29.9467 1.2 29.44 1.2H23.36C22.8533 1.2 22.48 1.32 22.24 1.56C22.0267 1.77333 21.92 2.13333 21.92 2.64V20.88C21.92 21.4133 21.72 21.8667 21.32 22.24C20.92 22.5867 20.0133 22.76 18.6 22.76C17.2133 22.76 16.32 22.5867 15.92 22.24C15.52 21.8667 15.32 21.4133 15.32 20.88V2.64C15.32 2.13333 15.2 1.77333 14.96 1.56C14.7467 1.32 14.3867 1.2 13.88 1.2H7.6C7.09333 1.2 6.72 1.32 6.48 1.56C6.26667 1.77333 6.16 2.13333 6.16 2.64V22.44C6.16 23.6667 6.33333 24.7867 6.68 25.8C7.05333 26.7867 7.69333 27.64 8.6 28.36C9.53333 29.0533 10.8 29.6 12.4 30C14 30.4 16.04 30.6 18.52 30.6C21 30.6 23.04 30.4 24.64 30C26.24 29.6 27.4933 29.0533 28.4 28.36C29.3333 27.64 29.9733 26.7867 30.32 25.8C30.6933 24.7867 30.88 23.6667 30.88 22.44ZM10.56 4.8H10.96V21.48C10.96 22.9733 11.48 24.1867 12.52 25.12C13.5867 26.0267 15.6 26.48 18.56 26.48C21.52 26.48 23.5333 26.0267 24.6 25.12C25.6667 24.1867 26.2 22.9733 26.2 21.48V4.8H26.6V21.48C26.6 23.08 26.04 24.3867 24.92 25.4C23.8 26.3867 21.68 26.88 18.56 26.88C15.44 26.88 13.32 26.3867 12.2 25.4C11.1067 24.3867 10.56 23.08 10.56 21.48V4.8ZM41.6681 34.76C41.0548 34.76 40.5615 34.64 40.1881 34.4C39.8148 34.1867 39.5081 33.7867 39.2681 33.2L35.3481 23.4C35.1081 22.7867 34.8948 22.2667 34.7081 21.84C34.5481 21.3867 34.4148 20.96 34.3081 20.56C34.2015 20.1333 34.1215 19.6933 34.0681 19.24C34.0415 18.76 34.0281 18.2 34.0281 17.56V7C34.0281 6.65333 34.0681 6.36 34.1481 6.12C34.2548 5.88 34.4015 5.68 34.5881 5.52L39.7481 1.16C39.8815 1.05333 40.0548 0.973332 40.2681 0.919998C40.5081 0.839999 40.7615 0.799999 41.0281 0.799999H47.3881C48.0281 0.799999 48.5081 0.959999 48.8281 1.28C49.1748 1.57333 49.3481 2.02667 49.3481 2.64V13.68C49.3481 13.9467 49.3748 14.2 49.4281 14.44C49.4815 14.68 49.5481 14.9333 49.6281 15.2L49.7481 15.48V7C49.7481 6.65333 49.7881 6.36 49.8681 6.12C49.9748 5.88 50.1215 5.68 50.3081 5.52L55.4681 1.16C55.6015 1.05333 55.7748 0.973332 55.9881 0.919998C56.2281 0.839999 56.4815 0.799999 56.7481 0.799999H63.0281C63.6948 0.799999 64.1615 0.946666 64.4281 1.24C64.7215 1.53333 64.8681 2 64.8681 2.64V13.2C64.8681 13.84 64.8415 14.4 64.7881 14.88C64.7615 15.3333 64.6948 15.7733 64.5881 16.2C64.4815 16.6 64.3348 17.0267 64.1481 17.48C63.9881 17.9067 63.7881 18.4267 63.5481 19.04L59.6281 28.84C59.5481 29.08 59.4415 29.2933 59.3081 29.48C59.1748 29.6667 59.0415 29.8133 58.9081 29.92L53.7481 34.2C53.5348 34.3867 53.2815 34.52 52.9881 34.6C52.7215 34.7067 52.4148 34.76 52.0681 34.76H41.6681ZM57.2281 30C57.7348 30 58.1481 29.9067 58.4681 29.72C58.8148 29.5333 59.0815 29.1867 59.2681 28.68L63.1881 18.88C63.4281 18.2933 63.6281 17.7867 63.7881 17.36C63.9481 16.9067 64.0815 16.48 64.1881 16.08C64.2948 15.68 64.3615 15.2667 64.3881 14.84C64.4415 14.3867 64.4681 13.84 64.4681 13.2V2.64C64.4681 2.13333 64.3481 1.77333 64.1081 1.56C63.8948 1.32 63.5348 1.2 63.0281 1.2H56.7481C56.2415 1.2 55.8681 1.32 55.6281 1.56C55.4148 1.77333 55.3081 2.13333 55.3081 2.64V13.64C55.3081 13.9067 55.2815 14.1733 55.2281 14.44C55.1748 14.7067 55.0948 14.9867 54.9881 15.28L53.1081 20.92C53.0281 21.1867 52.9348 21.3733 52.8281 21.48C52.7215 21.56 52.5615 21.6 52.3481 21.6H51.9081C51.6948 21.6 51.5348 21.56 51.4281 21.48C51.3215 21.3733 51.2281 21.1867 51.1481 20.92L49.2681 15.32C49.1615 15.0267 49.0815 14.7467 49.0281 14.48C48.9748 14.2133 48.9481 13.9467 48.9481 13.68V2.64C48.9481 2.13333 48.8148 1.77333 48.5481 1.56C48.2815 1.32 47.8948 1.2 47.3881 1.2H41.0281C40.5215 1.2 40.1481 1.32 39.9081 1.56C39.6948 1.77333 39.5881 2.13333 39.5881 2.64V13.2C39.5881 13.84 39.6015 14.3867 39.6281 14.84C39.6815 15.2667 39.7615 15.68 39.8681 16.08C39.9748 16.48 40.1081 16.9067 40.2681 17.36C40.4281 17.7867 40.6281 18.2933 40.8681 18.88L44.7881 28.68C44.9748 29.1867 45.2281 29.5333 45.5481 29.72C45.8948 29.9067 46.3215 30 46.8281 30H57.2281ZM44.1081 4.8H44.5081V13.44C44.5081 14.1333 44.5615 14.8 44.6681 15.44C44.7748 16.0533 44.9348 16.6267 45.1481 17.16L47.7881 23.56C48.0548 24.2533 48.3481 24.84 48.6681 25.32C49.0148 25.7733 49.5615 26 50.3081 26H53.8281C54.5748 26 55.1081 25.7733 55.4281 25.32C55.7748 24.84 56.0815 24.2533 56.3481 23.56L58.9881 17.16C59.2015 16.6267 59.3615 16.0533 59.4681 15.44C59.5748 14.8 59.6281 14.1333 59.6281 13.44V4.8H60.0281V13.44C60.0281 14.1867 59.9748 14.88 59.8681 15.52C59.7881 16.1333 59.6281 16.7333 59.3881 17.32L56.7481 23.72C56.4281 24.4933 56.0681 25.1333 55.6681 25.64C55.2681 26.1467 54.6548 26.4 53.8281 26.4H50.3081C49.4815 26.4 48.8681 26.1467 48.4681 25.64C48.0681 25.1333 47.7081 24.4933 47.3881 23.72L44.7481 17.32C44.5081 16.7333 44.3348 16.1333 44.2281 15.52C44.1481 14.88 44.1081 14.1867 44.1081 13.44V4.8Z" fill="black"/>
</svg>
